<svg width="331" height="58" viewBox="0 0 331 58" fill="none" xmlns="http://www.w3.org/2000/svg">
<path d="M157.119 48.0537H155.842V56.9667H157.119V48.0537Z" fill="white"/>
<path d="M160.832 48.0537H162.059L163.987 53.4235H164.012V48.0537H165.288V56.9667H164.085L162.133 51.6093H162.108V56.9667H160.832V48.0537Z" fill="white"/>
<path d="M168.87 50.1551C168.87 48.7036 169.972 47.9775 171.01 47.9775C172.05 47.9775 173.151 48.7036 173.151 50.1551V50.6064H171.873V50.1551C171.873 49.5418 171.474 49.2552 171.01 49.2552C170.548 49.2552 170.146 49.5418 170.146 50.1551V54.8638C170.146 55.4764 170.548 55.765 171.01 55.765C171.474 55.765 171.873 55.4764 171.873 54.8638V53.186H170.861V52.0585H173.151V54.8638C173.151 56.3153 172.05 57.0414 171.01 57.0414C169.972 57.0414 168.87 56.3153 168.87 54.8638V50.1551Z" fill="white"/>
<path d="M176.8 48.0537H180.605V49.256H178.076V51.871H180.281V53.0733H178.076V55.691H180.605V56.9667H176.8V48.0537Z" fill="white"/>
<path d="M183.911 48.0537H185.137L187.066 53.4235H187.091V48.0537H188.367V56.9667H187.164L185.212 51.6093H185.188V56.9667H183.911V48.0537Z" fill="white"/>
<path d="M196.156 54.9629C196.156 56.1278 195.229 57.0421 194.09 57.0421C192.951 57.0421 192.024 56.1278 192.024 54.9629V48.0537H193.3V54.8396C193.3 55.4647 193.639 55.7657 194.09 55.7657C194.541 55.7657 194.878 55.4647 194.878 54.8396V48.0537H196.156V54.9629Z" fill="white"/>
<path d="M201.179 48.0537H199.903V56.9667H201.179V48.0537Z" fill="white"/>
<path d="M205.784 49.2667H204.308V48.0645H208.539V49.2667H207.06V56.9774H205.784V49.2667Z" fill="white"/>
<path d="M212.836 53.1992L211.083 48.0537H212.435L213.461 51.5975H213.486L214.512 48.0537H215.865L214.112 53.1992V56.9667H212.836V53.1992Z" fill="white"/>
<path d="M224.142 48.2188H224.417V56.9809H224.142V48.2188Z" fill="white" stroke="white" stroke-width="0.662454" stroke-miterlimit="2" stroke-linejoin="round"/>
<path d="M228.337 56.9809H228.074V48.2188H228.462L231.541 56.4188V48.2188H231.804V56.9809H231.466L228.337 48.6182V56.9809Z" fill="white" stroke="white" stroke-width="0.662454" stroke-miterlimit="2" stroke-linejoin="round"/>
<path d="M240.323 56.9809H240.061V48.2188H240.448L243.528 56.4188V48.2188H243.79V56.9809H243.452L240.323 48.6182V56.9809Z" fill="white" stroke="white" stroke-width="0.662454" stroke-miterlimit="2" stroke-linejoin="round"/>
<path d="M248.224 54.6562H251.241L249.714 48.5223L248.224 54.6562ZM248.174 54.9074L247.661 56.9715H247.41L249.526 48.1963H249.914L252.079 56.9715H251.804L251.291 54.9074H248.174Z" fill="white" stroke="white" stroke-width="0.662454" stroke-miterlimit="2" stroke-linejoin="round"/>
<path d="M257.4 56.9809V48.4818H255.483V48.2188H259.59V48.4818H257.675V56.9809H257.4Z" fill="white" stroke="white" stroke-width="0.662454" stroke-miterlimit="2" stroke-linejoin="round"/>
<path d="M263.301 54.8282C263.301 55.879 263.676 56.7933 264.84 56.7933C266.004 56.7933 266.38 55.879 266.38 54.8282V48.2188H266.643V54.8157C266.643 56.0167 266.167 57.0438 264.84 57.0438C263.502 57.0438 263.025 56.0167 263.025 54.8157V48.2188H263.301V54.8282Z" fill="white" stroke="white" stroke-width="0.662454" stroke-miterlimit="2" stroke-linejoin="round"/>
<path d="M271.645 52.6742C272.859 52.6742 273.561 52.362 273.561 51.0096V50.2081C273.561 49.1449 273.147 48.4818 272.02 48.4818H270.568V52.6742H271.645ZM272.033 48.2188C273.335 48.2188 273.836 48.9822 273.836 50.1832V50.9729C273.836 52.0492 273.41 52.6369 272.446 52.8126C273.423 52.9628 273.836 53.601 273.836 54.5652V55.9413C273.836 56.2804 273.874 56.7054 274.074 56.9809H273.773C273.599 56.7054 273.561 56.3184 273.561 55.9413V54.5652C273.561 53.2764 272.785 52.9379 271.645 52.9379H270.568V56.9809H270.293V48.2188H272.033Z" fill="white" stroke="white" stroke-width="0.662454" stroke-miterlimit="2" stroke-linejoin="round"/>
<path d="M278.48 54.6562H281.496L279.97 48.5223L278.48 54.6562ZM278.429 54.9074L277.917 56.9715H277.666L279.782 48.1963H280.17L282.335 56.9715H282.06L281.547 54.9074H278.429Z" fill="white" stroke="white" stroke-width="0.662454" stroke-miterlimit="2" stroke-linejoin="round"/>
<path d="M285.96 56.9809V48.2188H286.235V56.7178H289.177V56.9809H285.96Z" fill="white" stroke="white" stroke-width="0.662454" stroke-miterlimit="2" stroke-linejoin="round"/>
<path d="M300.999 50.3299V50.4926H300.723V50.3168C300.723 49.2792 300.335 48.4029 299.196 48.4029C298.045 48.4029 297.657 49.2667 297.657 50.305C297.657 52.5468 301.012 52.4839 301.012 54.8622C301.012 56.0762 300.511 57.0397 299.171 57.0397C297.844 57.0397 297.344 56.0762 297.344 54.8622V54.4358H297.606V54.8753C297.606 55.9378 298.019 56.7767 299.171 56.7767C300.323 56.7767 300.736 55.9378 300.736 54.8753C300.736 52.6583 297.381 52.7331 297.381 50.3168C297.381 49.0411 297.92 48.1641 299.184 48.1523C300.511 48.1523 300.999 49.129 300.999 50.3299Z" fill="white" stroke="white" stroke-width="0.662454" stroke-miterlimit="2" stroke-linejoin="round"/>
<path d="M306.296 56.9809V48.4818H304.393V48.2188H308.486V48.4818H306.571V56.9809H306.296Z" fill="white" stroke="white" stroke-width="0.662454" stroke-miterlimit="2" stroke-linejoin="round"/>
<path d="M312.166 54.8148C312.166 55.8904 312.579 56.7674 313.743 56.7674C314.92 56.7674 315.346 55.8904 315.346 54.8148V50.3324C315.346 49.2567 314.92 48.3804 313.743 48.3804C312.579 48.3804 312.166 49.2567 312.166 50.3324V54.8148ZM311.891 50.3455C311.891 49.1183 312.416 48.1299 313.743 48.1299C315.096 48.1299 315.621 49.1183 315.621 50.3455V54.8017C315.621 56.0288 315.096 57.0173 313.743 57.0173C312.416 57.0173 311.891 56.0288 311.891 54.8017V50.3455Z" fill="white" stroke="white" stroke-width="0.662454" stroke-miterlimit="2" stroke-linejoin="round"/>
<path d="M319.527 56.9809H319.265V48.2188H319.652L322.732 56.4188V48.2188H322.994V56.9809H322.656L319.527 48.6182V56.9809Z" fill="white" stroke="white" stroke-width="0.662454" stroke-miterlimit="2" stroke-linejoin="round"/>
<path d="M329.514 52.4132V52.6624H326.934V56.7178H330.001V56.9815H326.659V48.2188H330.001V48.4824H326.934V52.4132H329.514Z" fill="white" stroke="white" stroke-width="0.662454" stroke-miterlimit="2" stroke-linejoin="round"/>
<path d="M104.553 19.1033C100.957 19.068 97.3615 19.0774 93.7664 19.0079C91.1096 18.9558 88.9055 17.1176 88.2746 14.5372C88.1818 14.157 88.1212 13.7678 88.0482 13.3975H81.2598C81.3734 14.2071 81.429 14.986 81.5973 15.7395C82.9416 21.763 87.9971 25.785 94.2559 25.8237C97.5263 25.8436 100.797 25.8391 104.067 25.8654C104.617 25.8694 105.181 25.9121 105.713 26.0421C108.604 26.747 110.539 29.4977 110.205 32.3789C109.861 35.343 107.357 37.6463 104.379 37.6711C100.936 37.7004 97.4935 37.6925 94.0509 37.6756C91.2139 37.6612 88.8142 35.6964 88.2165 32.9294C88.1331 32.5432 88.1043 32.1456 88.0482 31.74H81.2826C81.3253 32.2597 81.3576 32.7144 81.4017 33.1682C82.0163 39.4175 87.4823 44.409 93.7575 44.4338C97.3724 44.4482 100.987 44.4547 104.602 44.4229C105.455 44.4154 106.325 44.3176 107.155 44.126C113.597 42.6383 117.767 36.5612 116.885 29.9941C116.059 23.8381 110.771 19.1643 104.553 19.1033Z" fill="white"/>
<path d="M131.494 7.64436H145V44.4123H151.772V0.919922H131.494V7.64436Z" fill="white"/>
<path d="M21.3245 31.6131C20.8181 31.6196 20.5317 31.5084 20.3525 30.9961C20.082 30.2242 19.7201 29.4845 19.3954 28.731C15.4653 19.6068 11.5317 10.4837 7.61351 1.35418C7.45317 0.980379 7.26999 0.84734 6.86194 0.854786C5.40943 0.8806 3.95593 0.865211 2.50292 0.865211H0C0.099283 1.11143 0.164809 1.28567 0.238279 1.45644C3.19443 8.32235 6.15008 15.1883 9.10673 22.0537C12.2441 29.3391 15.3849 36.6235 18.5118 43.9133C18.6766 44.2965 18.8633 44.4643 19.3046 44.4435C20.1822 44.4018 21.0644 44.4023 21.942 44.4435C22.3823 44.4643 22.5705 44.2955 22.7348 43.9128C24.0156 40.9353 25.3181 37.9667 26.6128 34.9947C27.0908 33.8971 27.5644 32.7976 28.0827 31.6012C25.7585 31.6012 23.541 31.5848 21.3245 31.6131Z" fill="white"/>
<path d="M64.4718 1.01855H57.6973V44.4037H64.4718V1.01855Z" fill="white"/>
<path d="M273.179 0.899414H266.448V30.1968H273.179V0.899414Z" fill="white"/>
<path d="M103.313 7.28361C106.142 7.29553 108.562 9.29012 109.121 12.0507C109.191 12.3972 109.211 12.7536 109.253 13.0932H116.004C115.967 12.5297 115.966 11.9966 115.893 11.4724C115.022 5.18279 109.668 0.528401 103.302 0.520458C100.128 0.516487 96.953 0.519962 93.7784 0.519962H93.1475V7.28063H93.7883C96.9634 7.28063 100.138 7.27021 103.313 7.28361Z" fill="white"/>
<path d="M165.298 0.897461H157.89V7.58467H165.298V0.897461Z" fill="white"/>
<path d="M201.936 0.398358C189.636 0.0210827 179.529 9.70514 178.975 21.5784C178.373 34.4608 188.138 43.5452 197.901 44.7391C197.919 44.6517 197.955 44.5614 197.955 44.472C197.959 42.4844 197.97 40.1979 197.985 38.2103C197.986 38.176 197.986 38.176 197.987 38.1457C197.955 38.1408 197.454 38.0043 197.43 37.9983C197.331 37.973 197.238 37.9362 197.14 37.9089C197.005 37.8717 196.874 37.8275 196.741 37.7868C189.263 35.5073 184.547 28.215 185.634 20.4024C186.81 11.9564 194.789 5.93239 203.296 7.06868C210.821 8.07293 216.594 14.3506 216.951 21.914C217.3 29.3145 212.287 36.095 205.108 37.9308C204.821 38.0043 204.536 38.0901 204.262 38.1671V44.7456C214.154 43.7145 223.355 34.6723 223.5 23.0016C223.654 10.6602 213.776 0.761734 201.936 0.398358Z" fill="white"/>
<path d="M239.283 0.876953V44.3008H246.119V16.3348C252.818 24.7629 259.423 33.0724 266.085 41.4539L266.205 41.6063V30.5769L242.573 0.878938L239.283 0.876953Z" fill="white"/>
<path d="M34.1805 0.854492C34.1795 0.854492 34.179 0.854988 34.178 0.854988L33.8792 0.854492L33.7521 1.12454C33.7382 1.15334 33.7228 1.18163 33.7109 1.21241L33.7094 1.21489C33.6925 1.25709 33.6767 1.29928 33.6583 1.34197C30.5909 8.45262 27.5226 15.5633 24.4562 22.6739C24.3768 22.8581 24.3078 23.0462 24.2061 23.3044H24.9179C26.9453 23.3044 28.9731 23.285 31 23.3183C31.5029 23.3267 31.7297 23.1629 31.9243 22.7097C34.2808 17.2034 36.6591 11.7061 39.031 6.20684C39.785 4.45797 40.5371 2.70811 41.3314 0.862932C38.8831 0.862932 36.5315 0.87137 34.1805 0.854492Z" fill="white"/>
<path d="M329.731 43.8452C326.488 36.332 323.242 28.8197 319.998 21.307C317.162 14.7399 314.325 8.17336 311.503 1.60033L311.269 1.0498L307.47 1.0776L307.184 1.70458C307.18 1.71351 307.175 1.71947 307.171 1.7289C301.113 15.7561 295.039 29.7763 288.968 43.7986C288.888 43.9867 288.817 44.1798 288.717 44.432C288.954 44.432 296.064 44.4484 296.064 44.4484L296.388 43.6819C300.579 33.9914 304.786 24.3088 308.991 14.6248C309.085 14.4073 309.187 14.1934 309.338 13.8638C309.492 14.2073 309.594 14.4257 309.688 14.6466C313.864 24.3535 318.044 34.0599 322.201 43.7752C322.208 43.7896 322.215 43.7971 322.221 43.8115L322.276 43.9326L322.554 44.4484L323.196 44.4424C323.217 44.4424 323.232 44.4469 323.254 44.4464C325.281 44.4086 327.309 44.432 329.336 44.432H329.948C329.862 44.1957 329.805 44.017 329.731 43.8452Z" fill="white" stroke="white" stroke-width="0.134032" stroke-miterlimit="2" stroke-linejoin="round"/>
</svg>
